<?xml version="1.0" encoding="utf-8"?>
<!-- Generator: Adobe Illustrator 21.1.0, SVG Export Plug-In . SVG Version: 6.00 Build 0)  -->
<svg version="1.1" xmlns="http://www.w3.org/2000/svg" xmlns:xlink="http://www.w3.org/1999/xlink" x="0px" y="0px"
	 viewBox="0 0 160 41.5" style="enable-background:new 0 0 160 41.5;" xml:space="preserve">
<style type="text/css">
	.st0{fill:#F1F1F2;}
</style>
<g id="Layer_2">
</g>
<g id="Layer_1">
	<path class="st0" d="M60.4,7.7H60c-0.5,0-0.7-0.3-0.7-1.1V6.2c0-0.8,0.2-1.1,0.7-1.1h0.4V3.5c0-2.4,1.1-3.5,3.2-3.5
		c0.7,0,2.2,0.1,2.2,1.1c0,0.2-0.2,1.6-0.7,1.6c-0.2,0-0.5-0.1-0.7-0.1c-0.6,0-0.8,0.3-0.8,0.9v1.7h1.1c0.5,0,0.7,0.3,0.7,1.1v0.4
		c0,0.8-0.2,1.1-0.7,1.1h-1.1V16c0,0.5-0.4,0.7-1.3,0.7h-0.6c-0.9,0-1.3-0.2-1.3-0.7L60.4,7.7L60.4,7.7z"/>
	<path class="st0" d="M67.1,9c0-2.2-0.3-2.7-0.3-3.1c0-0.5,1.9-0.7,2.5-0.7c0.7,0,0.7,0.9,0.9,1.4c0.5-0.8,1.1-1.7,2.4-1.7
		c1.1,0,1.2,0.7,1.2,1.2c0,0.4-0.2,1.8-0.7,1.8c-0.3,0-0.6-0.2-1-0.2c-0.9,0-1.5,0.7-1.8,1.1v7c0,0.5-0.4,0.7-1.3,0.7h-0.6
		c-0.9,0-1.3-0.2-1.3-0.7C67.1,15.8,67.1,9,67.1,9z"/>
	<path class="st0" d="M75.1,2.6V0.8c0-0.5,0.4-0.7,1.3-0.7H77c0.9,0,1.3,0.2,1.3,0.7v1.8c0,0.5-0.4,0.7-1.3,0.7h-0.6
		C75.5,3.3,75.1,3,75.1,2.6z M75.1,5.8c0-0.5,0.4-0.7,1.3-0.7H77c0.9,0,1.3,0.2,1.3,0.7v10.1c0,0.5-0.4,0.7-1.3,0.7h-0.6
		c-0.9,0-1.3-0.2-1.3-0.7V5.8z"/>
	<path class="st0" d="M86.2,5c1.6,0,3.6,0.5,3.6,1.5c0,0.4-0.8,1.7-1.2,1.7c-0.1,0-0.2-0.1-0.4-0.2c-0.4-0.2-1-0.5-1.9-0.5
		c-1.8,0-2.5,1.1-2.5,3.3c0,2.3,0.7,3.4,2.3,3.4c1,0,1.7-0.3,2.1-0.5c0.2-0.1,0.3-0.1,0.4-0.1c0.5,0,1.1,1.2,1.1,1.7
		c0,1.2-3.1,1.5-3.8,1.5c-3.7,0-5.5-1.9-5.5-5.8C80.5,7.1,82.2,5,86.2,5z"/>
	<path class="st0" d="M97.4,9.5V8.8c0-0.8-0.5-1.2-1.7-1.2c-1.6,0-2.5,0.7-2.8,0.7c-0.5,0-1.1-1.3-1.1-1.8C91.8,5.8,93.6,5,96,5
		c3.5,0,4.7,1.5,4.7,3.7v4.1c0,2.3,0.3,2.7,0.3,3.2s-1.9,0.7-2.5,0.7c-0.7,0-0.7-0.9-0.9-1.5c-0.2,0.3-1.2,1.7-3.2,1.7
		c-2.4,0-3.2-1.4-3.2-3.2C91.2,11.8,91.9,9.5,97.4,9.5z M95.5,14.2c0.8,0,1.6-0.6,2-1.4v-1.2c-2.1,0-3.1,0.6-3.1,1.6
		C94.4,13.8,94.8,14.2,95.5,14.2z"/>
	<path class="st0" d="M103.5,9c0-2.2-0.3-2.7-0.3-3.1c0-0.5,1.9-0.7,2.5-0.7c0.7,0,0.7,0.9,0.9,1.4c0.6-0.8,1.8-1.7,3.3-1.7
		c2.2,0,3.2,1.1,3.2,3.5v7.4c0,0.5-0.4,0.7-1.3,0.7h-0.6c-0.9,0-1.3-0.2-1.3-0.7V8.9c0-0.9-0.4-1.4-1.3-1.4s-1.5,0.8-1.8,1.3v7
		c0,0.5-0.4,0.7-1.3,0.7h-0.6c-0.9,0-1.3-0.2-1.3-0.7L103.5,9L103.5,9z"/>
	<path class="st0" d="M49,29.9c0.2,0,1,0.8,2.6,0.8c1.4,0,2.2-0.7,2.2-1.9c0-1-0.6-1.6-2.2-2.1c-2.3-0.7-3-1.4-3-2.9
		c0-2,1.5-3.2,3.6-3.2c1.5,0,2.9,0.4,2.9,0.9c0,0.4-0.4,1.2-0.7,1.2c-0.1,0-0.8-0.5-2-0.5s-1.9,0.5-1.9,1.4c0,0.8,0.5,1.2,1.7,1.6
		c2.7,0.8,3.5,1.6,3.5,3.7c0,2-1.6,3.5-3.8,3.5c-2,0-3.6-0.8-3.6-1.3C48.2,30.7,48.7,29.9,49,29.9z"/>
	<path class="st0" d="M58.8,22.3h-1.1c-0.3,0-0.4-0.2-0.4-0.7v-0.3c0-0.5,0.1-0.7,0.4-0.7h1.1l0.3-2.3c0-0.3,0.2-0.5,0.7-0.5H60
		c0.5,0,0.7,0.2,0.7,0.5v2.3h1.8c0.3,0,0.4,0.2,0.4,0.7v0.3c0,0.5-0.1,0.7-0.4,0.7h-1.8v6.8c0,1.3,0.5,1.6,1.2,1.6
		c0.6,0,0.7-0.1,0.9-0.1c0.3,0,0.5,0.9,0.5,1c0,0.6-1,0.7-1.6,0.7c-1.1,0-2.8-0.5-2.8-3v-7H58.8z"/>
	<path class="st0" d="M70.3,20.5c3.2,0,5,2.1,5,5.9c0,3.8-1.7,5.8-5,5.8s-5.1-2-5.1-5.8C65.2,22.7,67,20.5,70.3,20.5z M73.3,26.4
		c0-2.9-1-4.3-3.1-4.3s-3.1,1.4-3.1,4.3c0,2.9,0.9,4.3,3.1,4.3C72.4,30.7,73.3,29.3,73.3,26.4z"/>
	<path class="st0" d="M82.8,20.5c1.7,0,3.3,0.5,3.3,1c0,0.4-0.4,1.2-0.7,1.2c0,0-0.1,0-0.2-0.1c-0.4-0.2-1.2-0.5-2.4-0.5
		c-1.9,0-3.2,1.1-3.2,4.2c0,3.1,0.9,4.4,3.4,4.4c1.2,0,2.1-0.4,2.5-0.6c0.1,0,0.2-0.1,0.2-0.1c0.3,0,0.7,0.8,0.7,1.1
		c0,0.5-1.5,1.1-3.4,1.1c-3.5,0-5.4-1.7-5.4-5.9C77.6,21.8,80.3,20.5,82.8,20.5z"/>
	<path class="st0" d="M89.1,18.9c0-0.3,0.3-0.5,0.9-0.5h0.1c0.6,0,0.9,0.2,0.9,0.5V26h0.1l4.2-5c0.2-0.2,0.7-0.3,1.2-0.3h0.1
		c0.5,0,0.8,0.1,0.8,0.3c0,0.1-0.1,0.3-0.2,0.4L93,26.2l4.5,5.3c0.2,0.2,0.2,0.3,0.2,0.4c0,0.2-0.3,0.3-1,0.3h-0.1
		c-0.5,0-1,0-1.2-0.3L91,26.7l0,0v5c0,0.3-0.3,0.5-0.9,0.5H90c-0.6,0-0.9-0.2-0.9-0.5V18.9z"/>
	<path class="st0" d="M102.2,36.2c0,0.3-0.3,0.5-0.9,0.5h-0.1c-0.6,0-0.9-0.2-0.9-0.5V24c0-1.8-0.3-2.7-0.3-2.8
		c0-0.4,0.9-0.5,1.2-0.5c0.5,0,0.6,0.9,0.8,1.4c1.1-1.1,2.2-1.6,3.5-1.6c2.6,0,4.3,2.5,4.3,5.8v0.2c0,3.7-1.8,5.7-4.4,5.7
		c-1.4,0-2.3-0.5-3.1-1.1L102.2,36.2L102.2,36.2z M104.9,30.6L104.9,30.6c2,0,3-1.5,3-4.1c0-2.8-1-4.4-2.7-4.4c-1,0-2.1,0.5-3,1.5v6
		C103,30.3,103.9,30.6,104.9,30.6z"/>
	<path class="st0" d="M113.1,17.4c0-0.3,0.3-0.5,0.9-0.5h0.1c0.6,0,0.9,0.2,0.9,0.5v4.7c0.8-0.8,2-1.5,3.4-1.5s3.5,0.6,3.5,3.5v7.6
		c0,0.3-0.3,0.5-0.9,0.5h-0.1c-0.6,0-0.9-0.2-0.9-0.5v-7.4c0-1.3-0.7-2.1-2.2-2.1c-1.6,0-2.8,1.5-2.8,1.5v8c0,0.3-0.3,0.5-0.9,0.5
		H114c-0.6,0-0.9-0.2-0.9-0.5V17.4z"/>
	<path class="st0" d="M129.7,20.5c3.2,0,5,2.1,5,5.9c0,3.8-1.7,5.8-5,5.8s-5.1-2-5.1-5.8C124.6,22.7,126.4,20.5,129.7,20.5z
		 M132.8,26.4c0-2.9-1-4.3-3.1-4.3c-2.1,0-3.1,1.4-3.1,4.3c0,2.9,0.9,4.3,3.1,4.3S132.8,29.3,132.8,26.4z"/>
	<path class="st0" d="M138.2,22.3h-1.1c-0.3,0-0.4-0.2-0.4-0.7v-0.3c0-0.5,0.1-0.7,0.4-0.7h1.1l0.3-2.3c0-0.3,0.2-0.5,0.7-0.5h0.2
		c0.5,0,0.7,0.2,0.7,0.5v2.3h1.8c0.3,0,0.4,0.2,0.4,0.7v0.3c0,0.5-0.1,0.7-0.4,0.7h-1.8v6.8c0,1.3,0.5,1.6,1.2,1.6
		c0.6,0,0.7-0.1,0.9-0.1c0.3,0,0.5,0.9,0.5,1c0,0.6-1,0.7-1.6,0.7c-1.1,0-2.8-0.5-2.8-3L138.2,22.3L138.2,22.3z"/>
	<path class="st0" d="M149.7,20.5c3.2,0,5,2.1,5,5.9c0,3.8-1.7,5.8-5,5.8s-5.1-2-5.1-5.8C144.6,22.7,146.4,20.5,149.7,20.5z
		 M152.7,26.4c0-2.9-1-4.3-3.1-4.3s-3.1,1.4-3.1,4.3c0,2.9,0.9,4.3,3.1,4.3S152.7,29.3,152.7,26.4z"/>
	<g>
		<path class="st0" d="M53.7,9.2V8.5c0-0.8-0.5-1.2-1.7-1.2c-1.6,0-2.5,0.7-2.8,0.7c-0.5,0-1.1-1.3-1.1-1.8c0-0.7,1.8-1.5,4.2-1.5
			c3.5,0,4.7,1.5,4.7,3.7v4.1c0,2.3,0.3,2.7,0.3,3.2s-1.9,0.7-2.5,0.7c-0.7,0-0.7-0.9-0.9-1.5c-0.2,0.3-1.2,1.7-3.2,1.7
			c-2.4,0-3.2-1.4-3.2-3.2C47.4,11.5,48.1,9.2,53.7,9.2z M51.7,13.9c0.8,0,1.6-0.6,2-1.4v-1.2c-2.1,0-3.1,0.6-3.1,1.6
			C50.6,13.5,51,13.9,51.7,13.9z"/>
	</g>
	<g>
		<g>
			<path class="st0" d="M19.7,27.8h-9c-2.1,0-3.8-2.1-3.8-4.8L6.2,11.3c0-2.7,1.7-4.8,3.8-4.8h6.7c1.1,0,2,0.9,2,2s-0.9,2-2,2h-6.3
				c-0.1,0.2-0.2,0.4-0.2,0.8l0.7,11.8c0,0.4,0.1,0.7,0.2,0.8h8.6c1.1,0,2,0.9,2,2S20.8,27.8,19.7,27.8z"/>
		</g>
		<g>
			<path class="st0" d="M36,27.8h-2.7c-1.1,0-2-0.9-2-2s0.9-2,2-2H36c0.7,0,1.2-0.4,1.2-0.8v-0.1l0.2-11.6c0-0.4-0.5-0.8-1.2-0.8H23
				c-1.1,0-2-0.9-2-2s0.9-2,2-2h13.2c2.9,0,5.2,2.2,5.2,4.8v0.1l-0.2,11.7C41.2,25.7,38.8,27.8,36,27.8z"/>
		</g>
		<g>
			<rect x="13" y="1.4" class="st0" width="5.9" height="3.2"/>
		</g>
	</g>
	<g>
		<path class="st0" d="M130.7,40.3c0-0.2,0.1-0.2,0.4-0.2h0.2c0.3,0,0.4,0.1,0.4,0.2V41c0,0.2-0.1,0.2-0.4,0.2h-0.2
			c-0.3,0-0.4-0.1-0.4-0.2V40.3z"/>
		<path class="st0" d="M135.5,35.5c0.8,0,1.6,0.2,1.6,0.5c0,0.2-0.2,0.6-0.4,0.6h-0.1c-0.2-0.1-0.6-0.3-1.2-0.3
			c-1,0-1.6,0.6-1.6,2.1s0.5,2.2,1.7,2.2c0.6,0,1-0.2,1.2-0.3c0.1,0,0.1,0,0.1,0c0.2,0,0.4,0.4,0.4,0.6c0,0.3-0.8,0.6-1.7,0.6
			c-1.8,0-2.7-0.8-2.7-3C132.9,36.1,134.2,35.5,135.5,35.5z"/>
		<path class="st0" d="M140.7,35.5c1.6,0,2.5,1.1,2.5,3s-0.9,2.9-2.5,2.9c-1.7,0-2.5-1-2.5-2.9C138.2,36.5,139.1,35.5,140.7,35.5z
			 M142.3,38.4c0-1.5-0.5-2.1-1.6-2.1s-1.5,0.7-1.5,2.1c0,1.5,0.5,2.1,1.5,2.1C141.8,40.5,142.3,39.9,142.3,38.4z"/>
		<path class="st0" d="M144.8,37.2c0-0.9-0.1-1.3-0.1-1.4c0-0.2,0.4-0.3,0.6-0.3c0.3,0,0.3,0.4,0.4,0.7c0.4-0.4,1-0.8,1.7-0.8
			c0.5,0,1.3,0.2,1.6,0.9c0.4-0.5,1.1-0.9,1.7-0.9c0.7,0,1.7,0.3,1.7,1.8V41c0,0.2-0.1,0.2-0.4,0.2l0,0c-0.3,0-0.4-0.1-0.4-0.2v-3.7
			c0-0.6-0.4-1.1-1.1-1.1c-0.7,0-1.2,0.6-1.3,0.8c0,0.1,0,0.2,0,0.2V41c0,0.2-0.1,0.2-0.4,0.2l0,0c-0.3,0-0.4-0.1-0.4-0.2v-3.7
			c0-0.6-0.4-1.1-1.1-1.1c-0.8,0-1.3,0.8-1.3,0.8v4c0,0.2-0.1,0.2-0.4,0.2l0,0c-0.3,0-0.4-0.1-0.4-0.2v-3.8H144.8z"/>
	</g>
	<g>
		<g>
			<path class="st0" d="M117.7,4c0.2,0,0.4,0,0.6,0c0.3,0,0.5,0.1,0.7,0.2c0.1,0.1,0.2,0.3,0.2,0.5c0,0.3-0.2,0.5-0.5,0.6l0,0
				c0.2,0.1,0.3,0.2,0.4,0.5s0.1,0.6,0.2,0.7H119c0-0.1-0.1-0.3-0.2-0.6c-0.1-0.3-0.2-0.5-0.5-0.5H118v1h-0.3V4z M118,5.1h0.3
				c0.3,0,0.5-0.2,0.5-0.5s-0.2-0.4-0.6-0.4c-0.1,0-0.3,0-0.3,0L118,5.1L118,5.1z"/>
		</g>
		<g>
			<path class="st0" d="M118.4,7.5c-1.3,0-2.3-1-2.3-2.3s1-2.3,2.3-2.3s2.3,1,2.3,2.3S119.6,7.5,118.4,7.5z M118.4,3.3
				c-1.1,0-2,0.9-2,2s0.9,2,2,2s2-0.9,2-2S119.5,3.3,118.4,3.3z"/>
		</g>
	</g>
</g>
</svg>
